<svg xmlns="http://www.w3.org/2000/svg" viewBox="0 0 128 128" shape-rendering="crispEdges">
  <rect width="128" height="128" rx="28" fill="#0a0b0f"/>
  <rect x="32" y="16" width="4" height="4" fill="#5fe3c2"/><rect x="36" y="16" width="4" height="4" fill="#5ee3c3"/><rect x="40" y="16" width="4" height="4" fill="#5de2c3"/><rect x="44" y="16" width="4" height="4" fill="#5ce2c4"/><rect x="48" y="16" width="4" height="4" fill="#5ae2c5"/><rect x="52" y="16" width="4" height="4" fill="#59e2c6"/><rect x="56" y="16" width="4" height="4" fill="#58e1c7"/><rect x="60" y="16" width="4" height="4" fill="#57e1c8"/><rect x="64" y="16" width="4" height="4" fill="#55e1c9"/><rect x="68" y="16" width="4" height="4" fill="#54e0ca"/><rect x="72" y="16" width="4" height="4" fill="#53e0cb"/><rect x="76" y="16" width="4" height="4" fill="#52e0cb"/><rect x="80" y="16" width="4" height="4" fill="#51dfcc"/><rect x="84" y="16" width="4" height="4" fill="#4fdfcd"/><rect x="32" y="20" width="4" height="4" fill="#5ee3c3"/><rect x="36" y="20" width="4" height="4" fill="#5de2c3"/><rect x="40" y="20" width="4" height="4" fill="#a9e6dc"/><rect x="44" y="20" width="4" height="4" fill="#a8e6dd"/><rect x="48" y="20" width="4" height="4" fill="#a8e6dd"/><rect x="52" y="20" width="4" height="4" fill="#58e1c7"/><rect x="56" y="20" width="4" height="4" fill="#57e1c8"/><rect x="60" y="20" width="4" height="4" fill="#55e1c9"/><rect x="64" y="20" width="4" height="4" fill="#54e0ca"/><rect x="68" y="20" width="4" height="4" fill="#53e0cb"/><rect x="72" y="20" width="4" height="4" fill="#52e0cb"/><rect x="76" y="20" width="4" height="4" fill="#51dfcc"/><rect x="80" y="20" width="4" height="4" fill="#4fdfcd"/><rect x="84" y="20" width="4" height="4" fill="#4edfce"/><rect x="32" y="24" width="4" height="4" fill="#5de2c3"/><rect x="36" y="24" width="4" height="4" fill="#5ce2c4"/><rect x="40" y="24" width="4" height="4" fill="#5ae2c5"/><rect x="44" y="24" width="4" height="4" fill="#59e2c6"/><rect x="48" y="24" width="4" height="4" fill="#58e1c7"/><rect x="52" y="24" width="4" height="4" fill="#57e1c8"/><rect x="56" y="24" width="4" height="4" fill="#55e1c9"/><rect x="60" y="24" width="4" height="4" fill="#54e0ca"/><rect x="64" y="24" width="4" height="4" fill="#53e0cb"/><rect x="68" y="24" width="4" height="4" fill="#52e0cb"/><rect x="72" y="24" width="4" height="4" fill="#51dfcc"/><rect x="76" y="24" width="4" height="4" fill="#4fdfcd"/><rect x="80" y="24" width="4" height="4" fill="#4edfce"/><rect x="84" y="24" width="4" height="4" fill="#4ddecf"/><rect x="68" y="28" width="4" height="4" fill="#51dfcc"/><rect x="72" y="28" width="4" height="4" fill="#4fdfcd"/><rect x="76" y="28" width="4" height="4" fill="#4edfce"/><rect x="80" y="28" width="4" height="4" fill="#4ddecf"/><rect x="84" y="28" width="4" height="4" fill="#4cded0"/><rect x="68" y="32" width="4" height="4" fill="#4fdfcd"/><rect x="72" y="32" width="4" height="4" fill="#4edfce"/><rect x="76" y="32" width="4" height="4" fill="#4ddecf"/><rect x="80" y="32" width="4" height="4" fill="#4cded0"/><rect x="84" y="32" width="4" height="4" fill="#4aded1"/><rect x="68" y="36" width="4" height="4" fill="#4edfce"/><rect x="72" y="36" width="4" height="4" fill="#4ddecf"/><rect x="76" y="36" width="4" height="4" fill="#4cded0"/><rect x="80" y="36" width="4" height="4" fill="#4aded1"/><rect x="84" y="36" width="4" height="4" fill="#49ddd2"/><rect x="68" y="40" width="4" height="4" fill="#4ddecf"/><rect x="72" y="40" width="4" height="4" fill="#4cded0"/><rect x="76" y="40" width="4" height="4" fill="#4aded1"/><rect x="80" y="40" width="4" height="4" fill="#49ddd2"/><rect x="84" y="40" width="4" height="4" fill="#48ddd3"/><rect x="68" y="44" width="4" height="4" fill="#4cded0"/><rect x="72" y="44" width="4" height="4" fill="#4aded1"/><rect x="76" y="44" width="4" height="4" fill="#49ddd2"/><rect x="80" y="44" width="4" height="4" fill="#48ddd3"/><rect x="84" y="44" width="4" height="4" fill="#47ddd3"/><rect x="68" y="48" width="4" height="4" fill="#4aded1"/><rect x="72" y="48" width="4" height="4" fill="#49ddd2"/><rect x="76" y="48" width="4" height="4" fill="#48ddd3"/><rect x="80" y="48" width="4" height="4" fill="#47ddd3"/><rect x="84" y="48" width="4" height="4" fill="#46dcd4"/><rect x="68" y="52" width="4" height="4" fill="#49ddd2"/><rect x="72" y="52" width="4" height="4" fill="#48ddd3"/><rect x="76" y="52" width="4" height="4" fill="#47ddd3"/><rect x="80" y="52" width="4" height="4" fill="#46dcd4"/><rect x="84" y="52" width="4" height="4" fill="#44dcd5"/><rect x="68" y="56" width="4" height="4" fill="#48ddd3"/><rect x="72" y="56" width="4" height="4" fill="#47ddd3"/><rect x="76" y="56" width="4" height="4" fill="#46dcd4"/><rect x="80" y="56" width="4" height="4" fill="#44dcd5"/><rect x="84" y="56" width="4" height="4" fill="#43dcd6"/><rect x="68" y="60" width="4" height="4" fill="#47ddd3"/><rect x="72" y="60" width="4" height="4" fill="#46dcd4"/><rect x="76" y="60" width="4" height="4" fill="#44dcd5"/><rect x="80" y="60" width="4" height="4" fill="#43dcd6"/><rect x="84" y="60" width="4" height="4" fill="#42dbd7"/><rect x="68" y="64" width="4" height="4" fill="#46dcd4"/><rect x="72" y="64" width="4" height="4" fill="#44dcd5"/><rect x="76" y="64" width="4" height="4" fill="#43dcd6"/><rect x="80" y="64" width="4" height="4" fill="#42dbd7"/><rect x="84" y="64" width="4" height="4" fill="#41dbd8"/><rect x="68" y="68" width="4" height="4" fill="#44dcd5"/><rect x="72" y="68" width="4" height="4" fill="#43dcd6"/><rect x="76" y="68" width="4" height="4" fill="#42dbd7"/><rect x="80" y="68" width="4" height="4" fill="#41dbd8"/><rect x="84" y="68" width="4" height="4" fill="#3fdbd9"/><rect x="36" y="72" width="4" height="4" fill="#4ddecf"/><rect x="40" y="72" width="4" height="4" fill="#4cded0"/><rect x="44" y="72" width="4" height="4" fill="#4aded1"/><rect x="48" y="72" width="4" height="4" fill="#49ddd2"/><rect x="68" y="72" width="4" height="4" fill="#43dcd6"/><rect x="72" y="72" width="4" height="4" fill="#42dbd7"/><rect x="76" y="72" width="4" height="4" fill="#41dbd8"/><rect x="80" y="72" width="4" height="4" fill="#3fdbd9"/><rect x="84" y="72" width="4" height="4" fill="#3edada"/><rect x="32" y="76" width="4" height="4" fill="#4ddecf"/><rect x="36" y="76" width="4" height="4" fill="#4cded0"/><rect x="40" y="76" width="4" height="4" fill="#4aded1"/><rect x="44" y="76" width="4" height="4" fill="#49ddd2"/><rect x="48" y="76" width="4" height="4" fill="#48ddd3"/><rect x="68" y="76" width="4" height="4" fill="#42dbd7"/><rect x="72" y="76" width="4" height="4" fill="#41dbd8"/><rect x="76" y="76" width="4" height="4" fill="#3fdbd9"/><rect x="80" y="76" width="4" height="4" fill="#3edada"/><rect x="84" y="76" width="4" height="4" fill="#3ddada"/><rect x="36" y="80" width="4" height="4" fill="#4aded1"/><rect x="40" y="80" width="4" height="4" fill="#49ddd2"/><rect x="44" y="80" width="4" height="4" fill="#48ddd3"/><rect x="48" y="80" width="4" height="4" fill="#47ddd3"/><rect x="52" y="80" width="4" height="4" fill="#46dcd4"/><rect x="68" y="80" width="4" height="4" fill="#41dbd8"/><rect x="72" y="80" width="4" height="4" fill="#3fdbd9"/><rect x="76" y="80" width="4" height="4" fill="#3edada"/><rect x="80" y="80" width="4" height="4" fill="#3ddada"/><rect x="84" y="80" width="4" height="4" fill="#3cdadb"/><rect x="40" y="84" width="4" height="4" fill="#48ddd3"/><rect x="44" y="84" width="4" height="4" fill="#47ddd3"/><rect x="48" y="84" width="4" height="4" fill="#46dcd4"/><rect x="52" y="84" width="4" height="4" fill="#44dcd5"/><rect x="56" y="84" width="4" height="4" fill="#43dcd6"/><rect x="60" y="84" width="4" height="4" fill="#42dbd7"/><rect x="64" y="84" width="4" height="4" fill="#41dbd8"/><rect x="68" y="84" width="4" height="4" fill="#3fdbd9"/><rect x="72" y="84" width="4" height="4" fill="#3edada"/><rect x="76" y="84" width="4" height="4" fill="#3ddada"/><rect x="80" y="84" width="4" height="4" fill="#3cdadb"/><rect x="84" y="84" width="4" height="4" fill="#3bd9dc"/><rect x="44" y="88" width="4" height="4" fill="#46dcd4"/><rect x="48" y="88" width="4" height="4" fill="#44dcd5"/><rect x="52" y="88" width="4" height="4" fill="#43dcd6"/><rect x="56" y="88" width="4" height="4" fill="#42dbd7"/><rect x="60" y="88" width="4" height="4" fill="#41dbd8"/><rect x="64" y="88" width="4" height="4" fill="#3fdbd9"/><rect x="68" y="88" width="4" height="4" fill="#3edada"/><rect x="72" y="88" width="4" height="4" fill="#3ddada"/><rect x="76" y="88" width="4" height="4" fill="#3cdadb"/><rect x="80" y="88" width="4" height="4" fill="#3bd9dc"/><rect x="84" y="88" width="4" height="4" fill="#39d9dd"/><rect x="48" y="92" width="4" height="4" fill="#43dcd6"/><rect x="52" y="92" width="4" height="4" fill="#42dbd7"/><rect x="56" y="92" width="4" height="4" fill="#41dbd8"/><rect x="60" y="92" width="4" height="4" fill="#3fdbd9"/><rect x="64" y="92" width="4" height="4" fill="#3edada"/><rect x="68" y="92" width="4" height="4" fill="#3ddada"/><rect x="72" y="92" width="4" height="4" fill="#3cdadb"/><rect x="76" y="92" width="4" height="4" fill="#3bd9dc"/><rect x="80" y="92" width="4" height="4" fill="#39d9dd"/><rect x="84" y="92" width="4" height="4" fill="#38d9de"/><rect x="52" y="96" width="4" height="4" fill="#41dbd8"/><rect x="56" y="96" width="4" height="4" fill="#3fdbd9"/><rect x="60" y="96" width="4" height="4" fill="#3edada"/><rect x="64" y="96" width="4" height="4" fill="#3ddada"/><rect x="68" y="96" width="4" height="4" fill="#3cdadb"/><rect x="72" y="96" width="4" height="4" fill="#3bd9dc"/><rect x="76" y="96" width="4" height="4" fill="#39d9dd"/><rect x="80" y="96" width="4" height="4" fill="#38d9de"/><rect x="56" y="100" width="4" height="4" fill="#3edada"/><rect x="60" y="100" width="4" height="4" fill="#3ddada"/><rect x="64" y="100" width="4" height="4" fill="#3cdadb"/><rect x="68" y="100" width="4" height="4" fill="#3bd9dc"/><rect x="72" y="100" width="4" height="4" fill="#39d9dd"/><rect x="76" y="100" width="4" height="4" fill="#38d9de"/><rect x="60" y="104" width="4" height="4" fill="#3cdadb"/><rect x="64" y="104" width="4" height="4" fill="#3bd9dc"/><rect x="68" y="104" width="4" height="4" fill="#39d9dd"/><rect x="72" y="104" width="4" height="4" fill="#38d9de"/>
</svg>
